<svg xmlns="http://www.w3.org/2000/svg" viewBox="0 0 1030.16 554.42"><defs><style>.cls-1{fill:#2a2428;}.cls-2{fill:#2e2827;}.cls-3{fill:#332d2c;}.cls-4{fill:#474444;}.cls-18,.cls-21,.cls-24,.cls-25,.cls-26,.cls-5{fill:none;}.cls-5{stroke:#707070;}.cls-12,.cls-13,.cls-6,.cls-7,.cls-8,.cls-9{isolation:isolate;}.cls-7{font-size:20px;}.cls-13,.cls-17,.cls-7,.cls-8,.cls-9{fill:#fff;}.cls-12,.cls-13,.cls-22,.cls-7,.cls-8,.cls-9{font-family:Roboto-Regular, Roboto;}.cls-8{font-size:12px;}.cls-9{font-size:28px;}.cls-10{letter-spacing:-0.01em;}.cls-11{letter-spacing:-0.01em;}.cls-12{font-size:16px;fill:#bfb9b9;}.cls-13{font-size:19px;}.cls-14{letter-spacing:-0.02em;}.cls-15{letter-spacing:-0.04em;}.cls-16{letter-spacing:-0.01em;}.cls-18{stroke:#736e72;}.cls-18,.cls-21,.cls-24,.cls-25,.cls-26{stroke-miterlimit:10;}.cls-19{fill:#403a3e;}.cls-20{fill:#736d71;}.cls-21{stroke:#3f393d;}.cls-21,.cls-25{stroke-width:0.75px;}.cls-22{font-size:10.26px;fill:#504b4e;}.cls-23{letter-spacing:-0.01em;}.cls-24,.cls-25{stroke:#736d71;}.cls-26{stroke:#333;}</style></defs><g id="Calque_2" data-name="Calque 2"><g id="Calque_1-2" data-name="Calque 1"><path id="Rectangle_1" data-name="Rectangle 1" class="cls-1" d="M23.16,0h984a23,23,0,0,1,23,23V33H.16V23A23,23,0,0,1,23.16,0Z"/><path id="Rectangle_2" data-name="Rectangle 2" class="cls-2" d="M266,32.42h764v499a23,23,0,0,1-23,23H266v-522Z"/><path id="Rectangle_3" data-name="Rectangle 3" class="cls-3" d="M0,32.42H266v522H23a23,23,0,0,1-23-23v-499Z"/><rect id="Rectangle_4" data-name="Rectangle 4" class="cls-4" x="11" y="52.42" width="244" height="103" rx="23"/><line id="Ligne_1" data-name="Ligne 1" class="cls-5" x1="11.5" y1="190.92" x2="255.5" y2="190.92"/><line id="Ligne_2" data-name="Ligne 2" class="cls-5" x1="11.5" y1="271.92" x2="255.5" y2="271.92"/><g id="Ma_Scolarité_05_07_2021" data-name="Ma Scolarité 05 07 2021" class="cls-6"><text class="cls-7" transform="translate(41 84.42)">Ma Scolarité</text><text class="cls-8" transform="translate(41 102.42)">05/07/2021</text></g><g id="Ma_Scolarité" data-name="Ma Scolarité" class="cls-6"><text class="cls-9" transform="translate(305 115.42)">Ma Scolarité</text></g><g id="Liste_de_course_07_12_2021" data-name="Liste de course 07 12 2021" class="cls-6"><text class="cls-7" transform="translate(41 232.42)">Liste de course</text><text class="cls-8" transform="translate(41 250.42)">07/12/2021</text></g><g id="Devoirs_07_12_2021" data-name="Devoirs 07 12 2021" class="cls-6"><text class="cls-7" transform="translate(41 313.42)">D<tspan class="cls-10" x="13.12" y="0">e</tspan><tspan class="cls-11" x="23.58" y="0">v</tspan><tspan x="33.13" y="0">oirs</tspan></text><text class="cls-8" transform="translate(41 331.42)">07/12/2021</text></g><g id="_05_07_2021" data-name=" 05 07 2021" class="cls-6"><text class="cls-12" transform="translate(606 60.42)">05/07/2021</text></g><g id="Groupe_1" data-name="Groupe 1"><g id="_2018_Collège_Simon_Vinciguerra_Brevet_des_Collèges_Mention_Très_Bien" data-name=" 2018 Collège Simon Vinciguerra Brevet des Collèges Mention Très Bien" class="cls-6"><text class="cls-13" transform="translate(328 195.42)">2018 Collège Simon Vinciguer<tspan class="cls-14" x="253.23" y="0">r</tspan><tspan x="259.28" y="0">a Br</tspan><tspan class="cls-10" x="292.58" y="0">e</tspan><tspan x="302.52" y="0">vet des Collèges Mention</tspan><tspan class="cls-14" x="514.98" y="0"> </tspan><tspan class="cls-15" x="519.31" y="0">T</tspan><tspan x="529.95" y="0">rès Bien</tspan></text></g><g id="_2018-2021_Lycée_Paul_Vincensini" data-name=" 2018-2021 Lycée Paul Vincensini" class="cls-6"><text class="cls-13" transform="translate(328 229.42)">2018-2021 Lycée <tspan class="cls-16" x="149.29" y="0">P</tspan><tspan x="161.18" y="0">aul Vincensini</tspan></text></g><g id="Filière_générale_Spécialités_Mathématiques_S.E.S_et_N.S.I." data-name="Filière générale Spécialités Mathématiques S.E.S et N.S.I." class="cls-6"><text class="cls-13" transform="translate(328 263.42)">Filière géné<tspan class="cls-14" x="96.87" y="0">r</tspan><tspan x="102.93" y="0">ale – Spécialités Mathématiques, S.E.S et N.S.I.</tspan></text></g><g id="_2021_Lycée_Paul_Vincensini" data-name=" 2021 Lycée Paul Vincensini" class="cls-6"><text class="cls-13" transform="translate(328 297.42)">2021 Lycée <tspan class="cls-16" x="101.37" y="0">P</tspan><tspan x="113.26" y="0">aul Vincensini</tspan></text></g><g id="Baccalauréat_Général_Mention_Assez_-_Bien" data-name="Baccalauréat Général Mention Assez - Bien" class="cls-6"><text class="cls-13" transform="translate(328 331.42)">Baccalauréat Géné<tspan class="cls-14" x="159.11" y="0">r</tspan><tspan x="165.16" y="0">al Mention Assez - Bien</tspan></text></g><circle id="Ellipse_2" data-name="Ellipse 2" class="cls-17" cx="310" cy="187.42" r="5"/><circle id="Ellipse_4" data-name="Ellipse 4" class="cls-17" cx="310" cy="221.42" r="5"/><circle id="Ellipse_5" data-name="Ellipse 5" class="cls-17" cx="310" cy="255.42" r="5"/><circle id="Ellipse_6" data-name="Ellipse 6" class="cls-17" cx="310" cy="289.42" r="5"/><circle id="Ellipse_7" data-name="Ellipse 7" class="cls-17" cx="310" cy="323.42" r="5"/></g><rect class="cls-18" x="61.41" y="9.95" width="5.94" height="5.94" rx="1.01"/><rect class="cls-18" x="69.47" y="9.95" width="5.94" height="5.94" rx="1.01"/><rect class="cls-18" x="69.47" y="18.01" width="5.94" height="5.94" rx="1.01"/><rect class="cls-18" x="61.41" y="18.01" width="5.94" height="5.94" rx="1.01"/><rect class="cls-19" x="11.82" y="4.82" width="37.64" height="24" rx="5.65"/><circle class="cls-20" cx="23.54" cy="20.61" r="0.67"/><rect class="cls-20" x="25.28" y="19.94" width="13.12" height="1.34" rx="0.67"/><circle class="cls-20" cx="23.54" cy="16.82" r="0.67"/><rect class="cls-20" x="25.28" y="16.15" width="13.12" height="1.34" rx="0.67"/><circle class="cls-20" cx="23.54" cy="13.02" r="0.67"/><rect class="cls-20" x="25.28" y="12.35" width="13.12" height="1.34" rx="0.67"/><rect class="cls-21" x="852.66" y="4.06" width="106.02" height="23.94" rx="10.89"/><circle class="cls-18" cx="868.06" cy="14.53" r="5.13"/><line class="cls-18" x1="871.9" y1="17.53" x2="877.03" y2="22.66"/><text class="cls-22" transform="translate(883.98 19.03)">Reche<tspan class="cls-23" x="28.21" y="0">r</tspan><tspan x="31.59" y="0">cher</tspan></text><g id="Icon_ionic-ios-trash" data-name="Icon ionic-ios-trash"><path id="Tracé_1" data-name="Tracé 1" class="cls-20" d="M179.78,11l1.1,13.65A1.38,1.38,0,0,0,182.26,26h6.62a1.37,1.37,0,0,0,1.37-1.38h0L191.35,11Zm2.89,12.45-.32-10.94h.87l.32,10.94Zm3.3,0h-.85V12.51H186Zm2.45,0h-.87l.32-10.94h.87Z"/><path id="Tracé_2" data-name="Tracé 2" class="cls-20" d="M190.62,9.31h-1.69l-1.24-1.07a.89.89,0,0,0-.62-.24h-3a.94.94,0,0,0-.63.24l-1.23,1.07h-1.69c-.83,0-1.41.4-1.41,1.23h13C192,9.71,191.44,9.31,190.62,9.31Z"/></g><path class="cls-24" d="M233.66,13.22v7.56a3.73,3.73,0,0,1-3.72,3.72h-7.56a3.73,3.73,0,0,1-3.72-3.72V13.22a3.73,3.73,0,0,1,3.72-3.72h7.24"/><path class="cls-25" d="M236.27,8.1l-8.76,8.76h-.71v-.7l8.76-8.76Z"/><line class="cls-26" x1="206.16" x2="206.16" y2="32"/></g></g></svg>