<svg xmlns="http://www.w3.org/2000/svg" xmlns:xlink="http://www.w3.org/1999/xlink" viewBox="0 0 1071 502"><defs><style>.cls-1,.cls-12,.cls-15,.cls-17,.cls-18,.cls-21,.cls-23,.cls-26,.cls-33,.cls-36,.cls-37,.cls-38,.cls-40{fill:none;}.cls-2{fill:#332d31;}.cls-3{fill:#482d3e;}.cls-4{fill:#292327;}.cls-5{fill:#575155;stroke:#575155;}.cls-12,.cls-15,.cls-16,.cls-17,.cls-18,.cls-19,.cls-20,.cls-21,.cls-22,.cls-23,.cls-26,.cls-33,.cls-34,.cls-35,.cls-36,.cls-37,.cls-40,.cls-41,.cls-5{stroke-miterlimit:10;}.cls-11,.cls-6{font-size:11.13px;}.cls-22,.cls-6{fill:#736e72;}.cls-11,.cls-24,.cls-42,.cls-6{font-family:Roboto-Regular, Roboto;}.cls-7{letter-spacing:-0.02em;}.cls-8{letter-spacing:-0.06em;}.cls-9{letter-spacing:-0.02em;}.cls-10{letter-spacing:-0.01em;}.cls-11,.cls-42{fill:#fff;}.cls-12,.cls-17,.cls-21,.cls-22{stroke:#736e72;}.cls-13{fill:#403a3e;}.cls-14,.cls-16,.cls-19{fill:#736d71;}.cls-15{stroke:#403a3f;}.cls-16{stroke:#736d71;}.cls-17,.cls-40,.cls-41{stroke-width:0.5px;}.cls-18,.cls-19,.cls-20{stroke:#555054;}.cls-18,.cls-19,.cls-20,.cls-21,.cls-22,.cls-23,.cls-35,.cls-37{stroke-width:0.75px;}.cls-20{fill:#555054;}.cls-23{stroke:#3f393d;}.cls-24{font-size:12px;fill:#504b4e;}.cls-25{letter-spacing:-0.01em;}.cls-26{stroke:#4d4d4d;}.cls-27{fill:#342f32;}.cls-28{fill:#fbcc09;}.cls-29{letter-spacing:-0.02em;}.cls-30,.cls-32,.cls-34,.cls-35,.cls-39,.cls-41{fill:#007afe;}.cls-30{fill-rule:evenodd;}.cls-31{clip-path:url(#clip-path);}.cls-33,.cls-34,.cls-35,.cls-36,.cls-37,.cls-38,.cls-39,.cls-40,.cls-41{stroke:#007afe;}.cls-36,.cls-37,.cls-38,.cls-39,.cls-40,.cls-41{stroke-linecap:round;}.cls-38,.cls-39{stroke-linejoin:round;}.cls-42{font-size:11px;}.cls-43{letter-spacing:-0.01em;}</style><clipPath id="clip-path"><rect class="cls-1" x="6.62" y="164.61" width="12.81" height="12.05"/></clipPath></defs><g id="Calque_2" data-name="Calque 2"><g id="Calque_1-2" data-name="Calque 1"><path class="cls-2" d="M146,0h902a23,23,0,0,1,23,23V42a0,0,0,0,1,0,0H146a0,0,0,0,1,0,0V0A0,0,0,0,1,146,0Z"/><path class="cls-3" d="M146,502H23A23,23,0,0,1,0,479V23A23,23,0,0,1,23,0H146Z"/><path class="cls-4" d="M146,42h925a0,0,0,0,1,0,0V479a23,23,0,0,1-23,23H146a0,0,0,0,1,0,0V42A0,0,0,0,1,146,42Z"/><line class="cls-5" x1="165.5" y1="20.68" x2="171" y2="26.18"/><line class="cls-5" x1="165.5" y1="20.89" x2="171" y2="15.39"/><line class="cls-5" x1="199.7" y1="20.48" x2="194" y2="26.18"/><line class="cls-5" x1="199.7" y1="20.7" x2="194" y2="15"/><text class="cls-6" transform="translate(215.94 23.52)">Mes<tspan class="cls-7" x="21.35" y="0"> </tspan><tspan class="cls-8" x="23.89" y="0">T</tspan><tspan x="29.92" y="0">alents</tspan></text><text class="cls-6" transform="translate(5.94 107.52)"><tspan class="cls-9">F</tspan><tspan class="cls-10" x="5.97" y="0">av</tspan><tspan x="17.25" y="0">oris</tspan></text><text class="cls-11" transform="translate(164.44 61.02)">Mes<tspan class="cls-7" x="21.35" y="0"> </tspan><tspan class="cls-8" x="23.89" y="0">T</tspan><tspan x="29.92" y="0">alents</tspan></text><text class="cls-11" transform="translate(545.44 61.02)">Niveau</text><rect class="cls-12" x="510.25" y="13.95" width="5.94" height="5.94" rx="1.01"/><rect class="cls-12" x="518.31" y="13.95" width="5.94" height="5.94" rx="1.01"/><rect class="cls-12" x="518.31" y="22.01" width="5.94" height="5.94" rx="1.01"/><rect class="cls-12" x="510.25" y="22.01" width="5.94" height="5.94" rx="1.01"/><rect class="cls-13" x="534.66" y="8.82" width="37.64" height="24" rx="5.65"/><circle class="cls-14" cx="546.38" cy="24.61" r="0.67"/><rect class="cls-14" x="548.12" y="23.94" width="13.12" height="1.34" rx="0.67"/><circle class="cls-14" cx="546.38" cy="20.82" r="0.67"/><rect class="cls-14" x="548.12" y="20.15" width="13.12" height="1.34" rx="0.67"/><circle class="cls-14" cx="546.38" cy="17.02" r="0.67"/><rect class="cls-14" x="548.12" y="16.35" width="13.12" height="1.34" rx="0.67"/><rect class="cls-12" x="582" y="14.27" width="21.5" height="13.5" rx="1.95"/><line class="cls-12" x1="588.5" y1="14.77" x2="588.5" y2="27.77"/><line class="cls-12" x1="596.5" y1="14.27" x2="596.5" y2="27.27"/><line class="cls-15" x1="615.5" y1="7.59" x2="615.5" y2="34.59"/><rect class="cls-12" x="627" y="14.2" width="21.5" height="9.5" rx="1.95"/><rect class="cls-12" x="627.5" y="26.7" width="1" height="1"/><rect class="cls-12" x="632.5" y="26.7" width="1" height="1"/><rect class="cls-12" x="637.5" y="26.7" width="1" height="1"/><rect class="cls-12" x="642.5" y="26.7" width="1" height="1"/><rect class="cls-12" x="647.5" y="26.7" width="1" height="1"/><line class="cls-16" x1="517.19" y1="54.73" x2="520.19" y2="57.73"/><line class="cls-16" x1="517.31" y1="54.73" x2="514.31" y2="57.73"/><line class="cls-16" x1="728.56" y1="23.46" x2="725.56" y2="20.46"/><line class="cls-16" x1="728.44" y1="23.46" x2="731.44" y2="20.46"/><line class="cls-17" x1="693.88" y1="11.91" x2="720" y2="11.91"/><line class="cls-17" x1="693.88" y1="21.52" x2="720" y2="21.41"/><rect class="cls-17" x="694.34" y="13.05" width="6.8" height="6.8" rx="1"/><rect class="cls-17" x="703.54" y="13.05" width="6.8" height="6.8" rx="1.01"/><rect class="cls-17" x="712.74" y="13.05" width="6.8" height="6.8" rx="1.01"/><rect class="cls-17" x="694.34" y="22.92" width="6.8" height="6.8" rx="1"/><rect class="cls-17" x="703.54" y="22.92" width="6.8" height="6.8" rx="1.01"/><rect class="cls-17" x="712.74" y="22.92" width="6.8" height="6.8" rx="1.01"/><rect class="cls-18" x="750.78" y="16.89" width="12.83" height="12.83" rx="1.95"/><rect class="cls-2" x="754.71" y="15.6" width="5.51" height="12.4"/><line class="cls-19" x1="757.24" y1="12.36" x2="760.5" y2="15.64"/><line class="cls-19" x1="757.24" y1="12.36" x2="753.98" y2="15.64"/><line class="cls-19" x1="757.24" y1="21.26" x2="757.24" y2="12.23"/><path class="cls-18" d="M789,30.16l-7.91-7.92,8.67-8.67H796l2.27,2.27V21Z"/><circle class="cls-20" cx="793.66" cy="17.38" r="0.87"/><line class="cls-16" x1="849.45" y1="23.73" x2="845.76" y2="20.04"/><line class="cls-16" x1="849.31" y1="23.73" x2="853" y2="20.04"/><circle class="cls-21" cx="830.63" cy="21.88" r="7.38"/><circle class="cls-22" cx="826.94" cy="21.59" r="0.61"/><circle class="cls-22" cx="830.63" cy="21.59" r="0.61"/><circle class="cls-22" cx="834.32" cy="21.59" r="0.61"/><rect class="cls-23" x="881.5" y="8.06" width="124" height="28" rx="10.89"/><circle class="cls-12" cx="899.5" cy="20.31" r="6"/><line class="cls-12" x1="904" y1="23.81" x2="910" y2="29.81"/><text class="cls-24" transform="translate(918.12 25.57)">Reche<tspan class="cls-25" x="32.99" y="0">r</tspan><tspan x="36.94" y="0">cher</tspan></text><line class="cls-26" x1="153" y1="71" x2="1071" y2="71"/><rect class="cls-27" x="153" y="85.33" width="909" height="22.22" rx="3.89"/><rect class="cls-27" x="153" y="132.22" width="909" height="22.22" rx="3.89"/><rect class="cls-27" x="153" y="179.89" width="909" height="22.22" rx="3.89"/><rect class="cls-27" x="153" y="227" width="909" height="22.22" rx="3.89"/><rect class="cls-27" x="153" y="274.11" width="909" height="22.22" rx="3.89"/><rect class="cls-27" x="153" y="321.11" width="909" height="22.22" rx="3.89"/><rect class="cls-27" x="153" y="368.33" width="909" height="22.22" rx="3.89"/><rect class="cls-27" x="153" y="415.56" width="909" height="22.22" rx="3.89"/><rect class="cls-27" x="153" y="462.78" width="909" height="22.22" rx="3.89"/><line class="cls-26" x1="534.82" y1="64" x2="534.5" y2="49.5"/><text class="cls-11" transform="translate(165.44 146.69)">Utilisation de différents outils de Création</text><polygon class="cls-28" points="546.65 134.79 549.54 140.65 556 141.59 551.33 146.14 552.43 152.57 546.65 149.53 540.88 152.57 541.98 146.14 537.31 141.59 543.77 140.65 546.65 134.79"/><polygon class="cls-28" points="571.65 134.79 574.54 140.65 581 141.59 576.33 146.14 577.43 152.57 571.65 149.53 565.88 152.57 566.98 146.14 562.31 141.59 568.77 140.65 571.65 134.79"/><polygon class="cls-28" points="596.65 134.79 599.54 140.65 606 141.59 601.33 146.14 602.43 152.57 596.65 149.53 590.88 152.57 591.98 146.14 587.31 141.59 593.77 140.65 596.65 134.79"/><polygon class="cls-28" points="621.65 134.79 624.54 140.65 631 141.59 626.33 146.14 627.43 152.57 621.65 149.53 615.88 152.57 616.98 146.14 612.31 141.59 618.77 140.65 621.65 134.79"/><text class="cls-11" transform="translate(165.44 193.69)">Aisance relationnelle</text><polygon class="cls-28" points="546.65 181.79 549.54 187.65 556 188.59 551.33 193.14 552.43 199.57 546.65 196.53 540.88 199.57 541.98 193.14 537.31 188.59 543.77 187.65 546.65 181.79"/><polygon class="cls-28" points="571.65 181.79 574.54 187.65 581 188.59 576.33 193.14 577.43 199.57 571.65 196.53 565.88 199.57 566.98 193.14 562.31 188.59 568.77 187.65 571.65 181.79"/><polygon class="cls-28" points="596.65 181.79 599.54 187.65 606 188.59 601.33 193.14 602.43 199.57 596.65 196.53 590.88 199.57 591.98 193.14 587.31 188.59 593.77 187.65 596.65 181.79"/><polygon class="cls-28" points="621.65 181.79 624.54 187.65 631 188.59 626.33 193.14 627.43 199.57 621.65 196.53 615.88 199.57 616.98 193.14 612.31 188.59 618.77 187.65 621.65 181.79"/><polygon class="cls-28" points="645.65 181.79 648.54 187.65 655 188.59 650.33 193.14 651.43 199.57 645.65 196.53 639.88 199.57 640.98 193.14 636.31 188.59 642.77 187.65 645.65 181.79"/><text class="cls-11" transform="translate(165.44 241.25)">Anglais (écrit et parlé)</text><polygon class="cls-28" points="546.65 228.79 549.54 234.65 556 235.59 551.33 240.14 552.43 246.57 546.65 243.53 540.88 246.57 541.98 240.14 537.31 235.59 543.77 234.65 546.65 228.79"/><polygon class="cls-28" points="571.65 228.79 574.54 234.65 581 235.59 576.33 240.14 577.43 246.57 571.65 243.53 565.88 246.57 566.98 240.14 562.31 235.59 568.77 234.65 571.65 228.79"/><polygon class="cls-28" points="596.65 228.79 599.54 234.65 606 235.59 601.33 240.14 602.43 246.57 596.65 243.53 590.88 246.57 591.98 240.14 587.31 235.59 593.77 234.65 596.65 228.79"/><polygon class="cls-28" points="621.65 228.79 624.54 234.65 631 235.59 626.33 240.14 627.43 246.57 621.65 243.53 615.88 246.57 616.98 240.14 612.31 235.59 618.77 234.65 621.65 228.79"/><text class="cls-11" transform="translate(165.44 288.36)">Espagnol (écrit et parlé)</text><polygon class="cls-28" points="546.65 275.8 549.54 281.65 556 282.58 551.33 287.14 552.43 293.57 546.65 290.54 540.88 293.57 541.98 287.14 537.31 282.58 543.77 281.65 546.65 275.8"/><polygon class="cls-28" points="571.65 275.8 574.54 281.65 581 282.58 576.33 287.14 577.43 293.57 571.65 290.54 565.88 293.57 566.98 287.14 562.31 282.58 568.77 281.65 571.65 275.8"/><polygon class="cls-28" points="596.65 275.8 599.54 281.65 606 282.58 601.33 287.14 602.43 293.57 596.65 290.54 590.88 293.57 591.98 287.14 587.31 282.58 593.77 281.65 596.65 275.8"/><polygon class="cls-28" points="621.65 275.8 624.54 281.65 631 282.58 626.33 287.14 627.43 293.57 621.65 290.54 615.88 293.57 616.98 287.14 612.31 282.58 618.77 281.65 621.65 275.8"/><text class="cls-11" transform="translate(165.44 335.47)">Rapidité d<tspan class="cls-29" x="49.4" y="0">’</tspan><tspan x="51.35" y="0">apprentissage et d’éxécution</tspan></text><polygon class="cls-28" points="546.65 323.8 549.54 329.65 556 330.58 551.33 335.14 552.43 341.57 546.65 338.54 540.88 341.57 541.98 335.14 537.31 330.58 543.77 329.65 546.65 323.8"/><polygon class="cls-28" points="571.65 323.8 574.54 329.65 581 330.58 576.33 335.14 577.43 341.57 571.65 338.54 565.88 341.57 566.98 335.14 562.31 330.58 568.77 329.65 571.65 323.8"/><polygon class="cls-28" points="596.65 323.8 599.54 329.65 606 330.58 601.33 335.14 602.43 341.57 596.65 338.54 590.88 341.57 591.98 335.14 587.31 330.58 593.77 329.65 596.65 323.8"/><polygon class="cls-28" points="621.65 323.8 624.54 329.65 631 330.58 626.33 335.14 627.43 341.57 621.65 338.54 615.88 341.57 616.98 335.14 612.31 330.58 618.77 329.65 621.65 323.8"/><polygon class="cls-28" points="645.65 323.8 648.54 329.65 655 330.58 650.33 335.14 651.43 341.57 645.65 338.54 639.88 341.57 640.98 335.14 636.31 330.58 642.77 329.65 645.65 323.8"/><path class="cls-30" d="M16.69,195l-1.15.67-3.15-5.43a.44.44,0,0,1,.16-.62l.37-.22a.46.46,0,0,1,.62.17Z"/><path class="cls-30" d="M15.67,195.92l1.15-.67.67,1.15-1.15.67Z"/><path class="cls-30" d="M8.39,197l2.78-4.77,1.19.7-2.78,4.76Z"/><path class="cls-30" d="M7.66,199.45l.58-2.17,1.19.69-1.62,1.57a.09.09,0,0,1-.11,0,.1.1,0,0,1,0-.1m3.61-7.37.4-.68a.45.45,0,0,1,.62-.16l.41.23a.46.46,0,0,1,.16.63l-.4.68Zm6.05,4.67-.63.37c-.31.19-.08.73,0,.85.4.67.81.57,1.12,1.05.17.26.12.37.18.46s.08.06.11,0a2.31,2.31,0,0,0,0-2.32c-.16-.24-.45-.62-.77-.44m1.68-1H17.34l-.72-1.33H19Zm-3.73,0H10.94l.74-1.33h2.85Zm-6.37,0H7.22v-1.33H9.69Z"/><g class="cls-31"><path class="cls-32" d="M6.62,171a6.36,6.36,0,0,1,2.18-4.8,6,6,0,0,1,3-1.48,6.25,6.25,0,0,1,5.38,1.39,6.33,6.33,0,0,1,2.26,5.41,6.33,6.33,0,0,1-2.06,4.2,6.8,6.8,0,0,1-1.2.87.18.18,0,0,1-.19,0,.16.16,0,0,1-.06-.17.17.17,0,0,1,.1-.12,5.4,5.4,0,0,0,1-.67,6.05,6.05,0,0,0,2-3.45,5.58,5.58,0,0,0,.1-1.63,6.13,6.13,0,0,0-4.71-5.49,6.07,6.07,0,0,0-7.2,4.28,5.57,5.57,0,0,0-.2,2.26,6,6,0,0,0,3.07,4.71.2.2,0,0,1,.08,0,.17.17,0,0,1,.07.22.17.17,0,0,1-.23.06,6.18,6.18,0,0,1-.64-.4,6.39,6.39,0,0,1-2.56-3.85A7.2,7.2,0,0,1,6.62,171"/></g><g class="cls-31"><path class="cls-32" d="M18.67,171a5.61,5.61,0,0,1-1.94,4.23,4.85,4.85,0,0,1-.94.67.17.17,0,0,1-.19,0,.16.16,0,0,1-.06-.16.17.17,0,0,1,.1-.12,5.29,5.29,0,0,0,.87-.62,5.31,5.31,0,0,0,.62-7.39A5.09,5.09,0,0,0,14,165.76a5.2,5.2,0,0,0-4.39,1.11A5.11,5.11,0,0,0,7.8,170a5.32,5.32,0,0,0,2.67,5.64.16.16,0,0,1,.09.18.15.15,0,0,1-.13.12.19.19,0,0,1-.13,0,5.67,5.67,0,0,1-2.08-2,5.37,5.37,0,0,1-.79-2.26,5.52,5.52,0,0,1,1.35-4.38A5.41,5.41,0,0,1,12,165.44a5.52,5.52,0,0,1,5.19,1.78,5.46,5.46,0,0,1,1.36,2.8,5.23,5.23,0,0,1,.09,1"/></g><g class="cls-31"><path class="cls-32" d="M17.9,171.16a4.77,4.77,0,0,1-2.44,4,.18.18,0,0,1-.1,0,.16.16,0,0,1-.17-.1.18.18,0,0,1,.07-.19l.3-.19A4.54,4.54,0,0,0,16.5,168a4.33,4.33,0,0,0-2.59-1.52,4.44,4.44,0,0,0-3.82,1A4.37,4.37,0,0,0,8.58,170a4.6,4.6,0,0,0,2.24,4.92c.08,0,.12.1.1.17a.15.15,0,0,1-.13.13.21.21,0,0,1-.13,0,4.89,4.89,0,0,1-2.49-4.61,4.87,4.87,0,0,1,9.51-1.08,5.44,5.44,0,0,1,.22,1.65"/></g><g class="cls-31"><path class="cls-32" d="M8.93,171A4.1,4.1,0,0,1,17,170a4.09,4.09,0,0,1-1.93,4.46.16.16,0,0,1-.24,0c0-.08,0-.17.08-.23a3.72,3.72,0,0,0,1.66-2,3.78,3.78,0,1,0-5.43,2c.1.06.14.11.12.19a.16.16,0,0,1-.25.1,4.33,4.33,0,0,1-.78-.57A4.09,4.09,0,0,1,9,171.57a3.5,3.5,0,0,1-.06-.62"/></g><g class="cls-31"><path class="cls-32" d="M16.36,170.88a3.32,3.32,0,0,1-1.62,2.86.16.16,0,0,1-.26-.1.18.18,0,0,1,.1-.18,2.72,2.72,0,0,0,.63-.5A3,3,0,0,0,16,171a3,3,0,1,0-4.52,2.44.19.19,0,0,1,.12.17.16.16,0,0,1-.25.12,3,3,0,0,1-.7-.53,3.33,3.33,0,1,1,5.67-2.36"/></g><g class="cls-31"><path class="cls-32" d="M10.47,171a2.59,2.59,0,0,1,2-2.61A2.56,2.56,0,0,1,14.39,173c-.1,0-.19,0-.24,0a.16.16,0,0,1,.07-.23,2.26,2.26,0,0,0,1-1.58,2.24,2.24,0,1,0-3.39,1.58l.06,0a.16.16,0,1,1-.17.27,2.68,2.68,0,0,1-.48-.35,2.51,2.51,0,0,1-.8-1.75"/></g><g class="cls-31"><path class="cls-32" d="M11.24,170.9A1.83,1.83,0,0,1,12.79,169a1.79,1.79,0,0,1,2,1.49A1.75,1.75,0,0,1,14,172.3a.16.16,0,0,1-.24,0c0-.07,0-.16.06-.23a1.47,1.47,0,1,0-1.61,0s.1.07.1.14a.15.15,0,0,1-.07.15.17.17,0,0,1-.17,0,1.8,1.8,0,0,1-.5-.45,1.68,1.68,0,0,1-.36-1"/></g><g class="cls-31"><path class="cls-32" d="M13,169.76a1,1,0,0,1,.65,1.81.17.17,0,0,1-.2,0,.18.18,0,0,1-.07-.18.16.16,0,0,1,.07-.09.71.71,0,0,0-.33-1.24.71.71,0,0,0-.58,1.23l.06.05a.15.15,0,0,1,0,.22.15.15,0,0,1-.22,0,1,1,0,0,1,.58-1.86"/></g><g class="cls-31"><path class="cls-32" d="M13.26,170.77A.24.24,0,0,1,13,171a.24.24,0,0,1-.23-.25.24.24,0,0,1,.47,0"/></g><path class="cls-33" d="M17.38,146.91V153H8.68v-6.09"/><path class="cls-34" d="M11.73,153v-4.13h2.6V153"/><path class="cls-35" d="M15.2,144.3V145l.44.45v-.67h.43v1.13l.44.45v-2Z"/><path class="cls-33" d="M8,147.35l5-3.9,5,3.9"/><path class="cls-36" d="M16.8,236.47H14.21v-2.59"/><path class="cls-37" d="M15.77,244H10.29A1.25,1.25,0,0,1,9,242.74v-7.83a1.25,1.25,0,0,1,1.26-1.26h3.4a1.26,1.26,0,0,1,.89.37l2.08,2.08A1.26,1.26,0,0,1,17,237v5.75A1.25,1.25,0,0,1,15.77,244Z"/><line class="cls-33" x1="12.98" y1="257.96" x2="12.98" y2="263.61"/><polygon class="cls-34" points="12.97 263.4 12.46 262.85 11.94 262.3 12.97 262.3 14.01 262.3 13.49 262.85 12.97 263.4"/><circle class="cls-36" cx="13.03" cy="261" r="5"/><path class="cls-38" d="M7.49,127.11l1.14-4.5a1.2,1.2,0,0,1,1.13-1h6.48a1.2,1.2,0,0,1,1.13,1l1.14,4.5Z"/><rect class="cls-38" x="7.09" y="126.97" width="11.88" height="3.47" rx="1.73"/><circle class="cls-39" cx="16.62" cy="128.7" r="0.37"/><circle class="cls-39" cx="13.15" cy="128.7" r="0.37"/><circle class="cls-39" cx="9.69" cy="128.7" r="0.37"/><rect class="cls-40" x="6.91" y="211.12" width="12.09" height="9.38" rx="1.14"/><rect class="cls-41" x="8.24" y="218.43" width="9.13" height="1.33" rx="0.24"/><line class="cls-40" x1="7.01" y1="212.2" x2="18.93" y2="212.2"/><text class="cls-42" transform="translate(23.32 130.11)">Macin<tspan class="cls-43" x="30.08" y="0">t</tspan><tspan x="33.57" y="0">osh HD</tspan></text><text class="cls-42" transform="translate(24.32 152.11)">nico</text><text class="cls-42" transform="translate(23.32 175.11)">AirD<tspan class="cls-43" x="20.78" y="0">r</tspan><tspan x="24.4" y="0">op</tspan></text><text class="cls-42" transform="translate(24.32 197.11)">Applications</text><text class="cls-42" transform="translate(23.32 220.11)">Bureau</text><text class="cls-42" transform="translate(24.32 242.11)">Documents</text><text class="cls-42" transform="translate(23.32 265.11)">Téléchargements</text></g></g></svg>